<?xml version="1.0" encoding="utf-8"?>
<!-- Generator: Adobe Illustrator 22.0.1, SVG Export Plug-In . SVG Version: 6.00 Build 0)  -->
<svg version="1.1" id="Layer_1" xmlns="http://www.w3.org/2000/svg" xmlns:xlink="http://www.w3.org/1999/xlink" x="0px" y="0px"
	 viewBox="0 0 240 70" style="enable-background:new 0 0 240 70;" xml:space="preserve">
<style type="text/css">
	.st0{fill:#14515C;}
	.st1{fill:#02616C;}
	.st2{fill:#18A8AA;}
	.st3{fill:#2CBDC1;}
	.st4{fill:#0B6E97;}
	.st5{fill:#003444;}
	.st6{fill:#094F4B;}
	.st7{fill:#0B624A;}
	.st8{fill:#1E8065;}
	.st9{fill:#179977;}
	.st10{fill:#094B2E;}
	.st11{fill:#1B6445;}
	.st12{fill:#165E3F;}
	.st13{fill:#1D97CD;}
	.st14{fill:#1DA9E1;}
	.st15{fill:#FFFFFF;}
</style>
<g>
	<g>
		<polygon class="st0" points="95.1,0 100.8,0 106.9,10.9 106.9,0 112.6,0 112.6,21.3 106.9,21.3 100.8,10.7 100.8,21.3 95.1,21.3 
			95.1,0 		"/>
		<path class="st0" d="M114.7,4.9c0-4.4,3.4-4.9,5.4-4.9c0,0,6.1,0,9.5,0.5v4.7h-7.8c-1.5,0-1.5,0.8-1.5,1.6v1.3l7.8,0.3v4.7
			l-7.8,0.3v1.3c0,1.5,1,1.5,1.8,1.5h7.5v4.7c-3,0.4-9.2,0.5-9.2,0.5c-1.9,0.1-5.7-0.3-5.7-4.8V4.9L114.7,4.9z"/>
		<polygon class="st0" points="131.4,0 147.9,0 147.9,5.1 142.4,5.1 142.4,21.3 136.8,21.3 136.8,5.1 131.4,5.1 131.4,0 		"/>
		<polygon class="st0" points="96,24.2 98.6,24.2 98.6,33.6 100.8,33.6 107.2,24.2 110.4,24.2 103.3,34.9 110.4,45.5 107.2,45.5 
			100.8,36.2 98.6,36.2 98.6,45.5 96,45.5 96,24.2 		"/>
		<path class="st0" d="M112,24.2h2.7v12c0,6.8,2,6.9,5.3,6.9c2.8,0,5.1-0.3,5.1-6.9v-12h2.7v12c0,9.4-4.3,9.5-7.8,9.5
			c-4,0-8,0.2-8-9.5V24.2L112,24.2z"/>
		<path class="st0" d="M129.6,24.2h9.1c2.9,0,5.2,1.6,5.2,6.5c0,5.5-2.7,6-3.6,6.2l4.4,8.7h-2.9l-4.2-8.5l-5.2-0.4v8.9h-2.7V24.2
			L129.6,24.2z M138.7,34.3c1.4,0,2.6-0.1,2.6-3.6c0-3.4-1.3-3.9-2.6-3.9h-6.4v7.5H138.7L138.7,34.3z"/>
		<path class="st0" d="M146,24.2h2.7v12c0,6.8,2,6.9,5.3,6.9c2.8,0,5.1-0.3,5.1-6.9v-12h2.7v12c0,9.4-4.3,9.5-7.8,9.5
			c-4,0-8,0.2-8-9.5V24.2L146,24.2z"/>
		<polygon class="st0" points="165,24.2 168.7,24.2 173.8,41.1 178.8,24.2 182.4,24.2 184.2,45.5 181.5,45.5 180.2,29 175.3,45.5 
			172.4,45.5 167.3,29 166.1,45.5 163.5,45.5 165,24.2 		"/>
		<path class="st0" d="M186,29.3c0-4.2,2.5-5.3,5.8-5.3c2,0,6.3,0.5,7.5,0.7V27c-1.9-0.1-6.9-0.3-7.2-0.3c-2-0.1-3.4,0.1-3.4,2.8
			v1.7c0,2.4,1.1,2.6,2.8,2.6h3.9c4,0,4.7,2.8,4.7,5.2v1.8c0,4.3-3,5-5.9,5c-2,0-6-0.4-7.5-0.8v-2.1c1.2,0.1,4.6,0.3,7.3,0.3
			c1.2,0,3.4-0.1,3.4-2.4V39c0-1.5-0.5-2.6-2.3-2.6h-3.9c-4.8,0-5.3-2.9-5.3-5.2V29.3L186,29.3z"/>
		<path class="st0" d="M207.8,24.2h2.8l7.3,21.3h-3l-1.7-5.6H205l-1.8,5.6h-3.1L207.8,24.2L207.8,24.2z M212.3,37.4l-3.1-9.3
			l-3.3,9.3H212.3L212.3,37.4z"/>
		<path class="st0" d="M219.3,24.2h2.7v17.2c0,1.5,1,1.5,1.8,1.5h8.5v2.6h-8.9c-2,0-4.1-0.5-4.1-3.8V24.2L219.3,24.2z"/>
		<path class="st0" d="M96.4,48.5h7.7c6.6,0,7.6,6.4,7.6,10.7c0,4.8-2,10.6-7.6,10.6h-7.7V48.5L96.4,48.5z M104.1,68.1
			c4.2,0,5.9-4.5,5.9-8.9c0-6.4-2.2-9-5.9-9h-6.1v17.9H104.1L104.1,68.1z"/>
		<path class="st0" d="M113.6,52.3c0-2.9,1.7-3.9,3.7-3.8l9,0.4v1.3h-9c-1.6,0-2,0.9-2,2.1v6.1l9.9,0.2v1.3l-9.9,0.2v6.1
			c0,1.9,1.2,2,2.3,2h8.7v1.2l-8.7,0.4c-1.9,0.1-4-0.4-4-3.7V52.3L113.6,52.3z"/>
		<path class="st0" d="M134.6,48.3c1.5,0,5.3,0.4,7.3,0.8v1.3c-0.2,0-4.5-0.4-7.3-0.4c-4.2,0-5,3.1-5,9.2c0,6.7,1.2,9.2,5.1,9.2
			c2.2,0,6-1.4,6-1.4v-6.8h-5.3v-1.1c1.2-0.3,2.7-0.6,5-0.6c0.6,0,1.3,0,2,0.1v11.2h-1.2l-0.4-1.5c-1,0.6-3.5,1.6-6.1,1.6
			c-6,0.1-6.8-4.8-6.8-10.9C128,53.2,128.8,48.3,134.6,48.3L134.6,48.3z"/>
		<path class="st0" d="M134.5,45.2c0,1.3,1.1,2.3,2.3,2.3c1.3,0,2.3-0.9,2.3-2.3h1c0,2.2-1.8,3.3-3.4,3.3c-1.6,0-3.3-1.2-3.3-3.3
			H134.5L134.5,45.2z"/>
		<path class="st0" d="M145.3,52.3c0-2.9,1.7-3.9,3.7-3.8l9,0.4v1.3h-9c-1.6,0-2,0.9-2,2.1v6.1l9.9,0.2v1.3l-9.9,0.2v6.1
			c0,1.9,1.2,2,2.3,2h8.7v1.2l-8.7,0.4c-1.9,0.1-4-0.4-4-3.7V52.3L145.3,52.3z"/>
		<path class="st0" d="M159.8,48.5h8.7c2.6,0,5,1.2,5,6.2c0,5.5-2.8,6-4,6.1l4.6,9h-1.8l-4.6-8.9c-0.5,0-6.2-0.3-6.2-0.4v9.3h-1.7
			V48.5L159.8,48.5z M168.5,59.1c1.7,0,3.3-0.2,3.3-4.4c0-4-1.7-4.5-3.3-4.5h-7.1v8.9H168.5L168.5,59.1z"/>
		<path class="st0" d="M176.1,48.5h1.7v17.6c0,1.9,1.2,2,2.3,2h8.6v1.7H180c-1.9,0-4-0.4-4-3.7V48.5L176.1,48.5z"/>
		<path class="st0" d="M190.8,52.3c0-2.9,1.7-3.9,3.7-3.8l9,0.4v1.3h-9c-1.6,0-2,0.9-2,2.1v6.1l9.9,0.2v1.3l-9.9,0.2v6.1
			c0,1.9,1.2,2,2.3,2h8.7v1.2l-8.7,0.4c-1.9,0.1-4-0.4-4-3.7V52.3L190.8,52.3z"/>
		<polygon class="st0" points="206.9,48.5 209.2,48.5 215.1,67 220.8,48.5 223.1,48.5 225,69.8 223.3,69.8 221.7,51.4 216,69.8 
			214.2,69.8 208.4,51.4 206.8,69.8 205.2,69.8 206.9,48.5 		"/>
		<path class="st0" d="M227.2,52.3c0-2.9,1.7-3.9,3.7-3.8l9,0.4v1.3h-9c-1.6,0-2,0.9-2,2.1v6.1l9.9,0.2v1.3l-9.9,0.2v6.1
			c0,1.9,1.2,2,2.3,2h8.7v1.2l-8.7,0.4c-1.9,0.1-4-0.4-4-3.7V52.3L227.2,52.3z"/>
	</g>
	<g>
		<path class="st1" d="M23.7,10.7l0.6,11.2L45.7,36l23.1-15.4l0.5-11.5c0,0-6.7-3.9-13.1-6.8C54.1,1.4,51,1,48.1,1
			s-7.2,0.3-11.4,2.7S23.7,10.7,23.7,10.7z"/>
		<path class="st2" d="M23.7,10.7l21.4,13L69.3,9.2c0,0-10.6-5.6-13.1-6.8C53.8,1.2,51,0.9,48.1,1s-6.5,0-11.4,2.7
			C31.7,6.4,23.7,10.7,23.7,10.7z"/>
		<path class="st3" d="M48.1,6.1C51,6,53.8,6.3,56.2,7.5c1.4,0.7,5.3,2.7,8.5,4.4l4.5-2.7c0,0-10.6-5.6-13.1-6.8
			C53.8,1.2,51,0.9,48.1,1c-2.9,0.1-6.5,0-11.4,2.7c-5,2.7-13,7-13,7l4.5,2.7c2.7-1.4,6-3.2,8.5-4.6C41.6,6.1,45.2,6.2,48.1,6.1z"/>
		<path class="st2" d="M45,23.7L28.1,13.4c-2.5,1.4-4.5,2.4-4.5,2.4l21.4,13l24.2-14.5c0,0-2-1.1-4.5-2.4L45,23.7z"/>
		<path class="st4" d="M75.1,55c0,0,10.6-8.7,12.2-9.9s2.5-7.1,3-10.1c0.5-3,1.4-7.4,0.5-9.4c-1-1.9-1.9-4-7-6.4s-15.6-7.6-15.6-7.6
			L47,24.6v12.6L75.1,55z"/>
		<polygon class="st5" points="76.7,42 75.1,55 47,37.2 47,24.6 		"/>
		<polygon class="st6" points="45,23.7 45.7,36 24.3,21.9 23.7,10.7 		"/>
		<path class="st7" d="M19.3,9.9c0,0-7.8,3.9-13.4,6.7c-4.4,2.1-5.2,5.8-5.3,6.8s0.8,6.1,0.8,6.1l1.2,7c0,0,0,2.6,3.6,6.2
			c2,2,11.9,9.3,11.9,9.3l24.9-16l0.4-11.3L19.3,9.9z"/>
		<path class="st8" d="M43.4,24.5L17.7,40.2c0,0-16.5-11.6-16.8-13.6s-0.6-3.7,0.5-5.8c1.1-2.2,3.4-3.7,5.1-4.6
			c1.8-0.9,12.7-6.4,12.7-6.4L43.4,24.5z"/>
		<path class="st9" d="M5.9,24.7c1.2-2.2,3.5-3.8,5.3-4.8c1.8-0.9,13.1-6.6,13.1-6.6L43,24.8l0.4-0.3L19.3,9.9c0,0-11,5.5-12.7,6.4
			c-1.8,0.9-4,2.4-5.1,4.6c-1.1,2-0.7,3.8-0.5,5.8c0.1,0.7,2.2,2.6,4.8,4.7c-0.2-0.3-0.3-0.5-0.4-0.7C5.1,28.6,4.8,26.8,5.9,24.7z"
			/>
		<path class="st8" d="M43,24.8L17.7,40.2c0,0-7-4.9-11.9-8.9c2.5,3.2,16.9,13.3,16.9,13.3l26.4-16.1L43,24.8z"/>
		<path class="st10" d="M15.6,43.8l29.6-18.2l26,15.9l-1,11.9c0,0-4.5,4.1-13.3,10.8S38.7,71.7,31.4,67S19.2,58.7,17,56.1
			C16.4,52,15.6,43.8,15.6,43.8z"/>
		<path class="st11" d="M71.2,41.5c-2.6,2.1-11.7,8.6-17.7,12.6c-6.1,4.1-18.7,3.2-25.8-1.7s-12.1-8.6-12.1-8.6l29.6-18.2L71.2,41.5
			z"/>
		<path class="st12" d="M67.3,44.4c1.7-1.2,3.1-2.3,3.9-2.9l-26-15.9L15.6,43.8c0,0,1.5,1.1,3.9,2.8l25.7-15.8L67.3,44.4z"/>
		<path class="st13" d="M47,24.6L76.7,42c0,0,9.5-6.7,12.4-9.2c2.9-2.6,2.2-6.9,0.7-9.1c-1.6-2.2-5-4.1-8.2-5.6
			c-3.2-1.5-13.5-6.6-13.5-6.6L47,24.6z"/>
		<path class="st14" d="M89.8,23.7c-1.6-2.2-5-4.1-8.2-5.6c-3.2-1.5-13.5-6.6-13.5-6.6L47,24.6l0.7,0.4l16.3-10.1
			c0,0,10.4,5.1,13.7,6.7c3.2,1.5,6.7,3.4,8.3,5.6c1.3,1.8,2,5,0.6,7.6c1-0.8,1.9-1.5,2.5-2C92,30.2,91.3,25.9,89.8,23.7z"/>
		<g>
			<path class="st15" d="M45.7,23L68.2,9.2c-1.7-0.9-5.3-2.8-10.5-5.5c-3.2-1.7-6.5-2.3-9.4-2.3c-3.5,0-6.5,0.9-8.6,1.9
				C36.6,5,28.4,9.4,25.4,11L45.7,23z M45.4,24.4L23.7,11.6L24,11l0.3,0.6L24,11l-0.4,0.6c-0.2-0.1-0.3-0.4-0.3-0.6
				c0-0.2,0.1-0.5,0.4-0.6c0,0,11.5-6.2,15.4-8.2c2.3-1.2,5.5-2.1,9.2-2.1c3.1,0,6.5,0.7,10,2.4c7.3,3.7,11.6,6,11.6,6.1
				c0.2,0.1,0.4,0.3,0.4,0.6c0,0.2-0.1,0.5-0.3,0.6L46.1,24.4c-0.1,0.1-0.2,0.1-0.4,0.1C45.6,24.5,45.5,24.5,45.4,24.4z"/>
			<path class="st15" d="M77.1,40.8c0.5-0.3,1.4-1,2.7-2c2-1.5,4.8-3.7,8.2-6.6c2.2-1.9,2.9-3.5,2.9-4.9c0.1-2.8-3.1-5.3-4.8-6.2
				c-4.2-2.3-15.3-7.7-17.4-8.7L49.1,24.6L77.1,40.8z M76.8,42.3l-29.3-17l0.3-0.6l0.4,0.6l-0.4-0.6l-0.3,0.6
				c-0.2-0.1-0.3-0.3-0.3-0.6c0-0.2,0.1-0.5,0.3-0.6l20.9-12.9c0.2-0.1,0.4-0.1,0.7,0c0,0,13.1,6.3,17.8,8.9
				c1.9,1.1,5.5,3.6,5.5,7.4c0,1.9-1,3.9-3.4,5.9c-6.9,5.8-11.4,8.9-11.4,8.9c-0.1,0.1-0.3,0.1-0.4,0.1C77,42.3,76.9,42.3,76.8,42.3
				z"/>
			<path class="st15" d="M54.3,53.2c2.4-1.5,6.6-4.6,10.1-7.2c2.4-1.8,4.6-3.5,5.7-4.3L45.6,26.9L17.3,44.1c0.6,0.5,1.5,1.2,2.8,2.1
				c2.3,1.7,5.7,4.1,10,6.9c3.3,2.1,7.6,3.1,11.9,3.1C46.7,56.2,51.4,55,54.3,53.2z M29.3,54.2c-8.6-5.7-13.6-9.7-13.6-9.7
				c-0.2-0.1-0.3-0.4-0.3-0.6c0-0.2,0.1-0.4,0.3-0.5l29.5-17.9c0.2-0.1,0.5-0.1,0.7,0l25.7,15.4c0.2,0.1,0.3,0.3,0.3,0.5
				c0,0.2-0.1,0.4-0.3,0.6c0,0-11.8,9.2-16.7,12.3c-3.2,2-8.1,3.2-13.1,3.3C37.5,57.6,32.9,56.6,29.3,54.2z"/>
			<path class="st15" d="M6.8,17.3c-1.9,1-5.4,3.3-5.3,6.2c0,1.4,0.8,3.2,3.4,5.3c4,3.3,7.5,5.9,10,7.7c1.8,1.3,3.1,2.2,3.7,2.6
				l23.6-14.2L19.7,10.9C17.9,11.8,9.6,15.7,6.8,17.3z M18.1,40.5c0,0-6.1-4-14.1-10.6c-2.8-2.3-3.9-4.4-3.9-6.4
				c0.1-3.9,4.1-6.3,6-7.4c3.3-1.8,13.3-6.6,13.3-6.6c0.2-0.1,0.5-0.1,0.7,0l23.7,14.7l-0.4,0.6l0.4-0.6c0.2,0.1,0.3,0.3,0.3,0.6
				c0,0.2-0.1,0.5-0.3,0.6l-25,15c-0.1,0.1-0.2,0.1-0.4,0.1C18.4,40.6,18.2,40.5,18.1,40.5z"/>
		</g>
	</g>
</g>
</svg>
