<?xml version="1.0" encoding="utf-8"?>
<!-- Generator: Adobe Illustrator 22.0.1, SVG Export Plug-In . SVG Version: 6.00 Build 0)  -->
<svg version="1.1" id="Layer_1" xmlns="http://www.w3.org/2000/svg" xmlns:xlink="http://www.w3.org/1999/xlink"
	 heigh="50px" width="50px"
	 x="0px" y="0px"
	 viewBox="0 0 50 50" style="enable-background:new 0 0 50 50;" xml:space="preserve">
<style type="text/css">
	.st0{fill:#02616C;}
	.st1{fill:#18A8AA;}
	.st2{fill:#2CBDC1;}
	.st3{fill:#0B6E97;}
	.st4{fill:#003444;}
	.st5{fill:#094F4B;}
	.st6{fill:#0B624A;}
	.st7{fill:#1E8065;}
	.st8{fill:#179977;}
	.st9{fill:#094B2E;}
	.st10{fill:#1B6445;}
	.st11{fill:#165E3F;}
	.st12{fill:#1D97CD;}
	.st13{fill:#1DA9E1;}
	.st14{fill:#FFFFFF;}
</style>
<g>
	<path class="st0" d="M12.8,11.8l0.3,6.1l11.6,7.7l12.5-8.3l0.3-6.2c0,0-3.6-2.1-7.1-3.7c-1.2-0.5-2.8-0.7-4.4-0.7S22.1,6.7,19.8,8
		S12.8,11.8,12.8,11.8z"/>
	<path class="st1" d="M12.8,11.8l11.6,7L37.5,11c0,0-5.8-3-7.1-3.7c-1.3-0.6-2.8-0.8-4.4-0.7s-3.5,0-6.2,1.5
		C17.1,9.5,12.8,11.8,12.8,11.8z"/>
	<path class="st2" d="M26,9.3c1.6-0.1,3.1,0.1,4.4,0.7c0.7,0.4,2.9,1.5,4.6,2.4l2.5-1.5c0,0-5.8-3-7.1-3.7c-1.3-0.6-2.8-0.8-4.4-0.7
		c-1.6,0.1-3.5,0-6.2,1.5c-2.7,1.5-7,3.8-7,3.8l2.4,1.5c1.4-0.8,3.2-1.7,4.6-2.5C22.5,9.3,24.4,9.4,26,9.3z"/>
	<path class="st1" d="M24.4,18.8l-9.2-5.6c-1.4,0.7-2.4,1.3-2.4,1.3l11.6,7l13.1-7.9c0,0-1.1-0.6-2.5-1.3L24.4,18.8z"/>
	<path class="st3" d="M40.6,35.8c0,0,5.8-4.7,6.6-5.4c0.9-0.7,1.3-3.8,1.6-5.5c0.3-1.6,0.8-4,0.3-5.1c-0.5-1-1-2.2-3.8-3.5
		c-2.7-1.3-8.5-4.1-8.5-4.1l-11.4,7.1v6.8L40.6,35.8z"/>
	<polygon class="st4" points="41.5,28.8 40.6,35.8 25.5,26.2 25.5,19.3 	"/>
	<polygon class="st5" points="24.4,18.8 24.7,25.5 13.1,17.8 12.8,11.8 	"/>
	<path class="st6" d="M10.4,11.3c0,0-4.2,2.1-7.2,3.6c-2.4,1.2-2.8,3.1-2.9,3.7c-0.1,0.5,0.4,3.3,0.4,3.3l0.7,3.8c0,0,0,1.4,2,3.4
		c1.1,1.1,6.4,5,6.4,5l13.5-8.7l0.2-6.2L10.4,11.3z"/>
	<path class="st7" d="M23.5,19.3L9.6,27.8c0,0-8.9-6.3-9.1-7.4s-0.3-2,0.3-3.1c0.6-1.2,1.8-2,2.8-2.5s6.9-3.5,6.9-3.5L23.5,19.3z"/>
	<path class="st8" d="M3.1,19.4C3.8,18.2,5,17.3,6,16.8c1-0.5,7.1-3.6,7.1-3.6l10.1,6.2l0.2-0.1l-13.1-8c0,0-5.9,3-6.9,3.5
		c-1,0.5-2.2,1.3-2.8,2.5c-0.6,1.1-0.4,2-0.3,3.1c0.1,0.4,1.2,1.4,2.6,2.6c-0.1-0.1-0.2-0.3-0.2-0.4C2.7,21.5,2.5,20.5,3.1,19.4z"/>
	<path class="st7" d="M23.3,19.4L9.6,27.8c0,0-3.8-2.7-6.5-4.8c1.3,1.7,9.2,7.2,9.2,7.2l14.3-8.8L23.3,19.4z"/>
	<path class="st9" d="M8.4,29.8l16.1-9.9l14.1,8.6L38,35c0,0-2.5,2.2-7.2,5.9s-9.9,4-13.8,1.5c-3.9-2.5-6.7-4.5-7.8-5.9
		C8.8,34.2,8.4,29.8,8.4,29.8z"/>
	<path class="st10" d="M38.5,28.5c-1.4,1.2-6.3,4.6-9.6,6.8c-3.3,2.2-10.1,1.8-14-0.9s-6.5-4.6-6.5-4.6l16.1-9.9L38.5,28.5z"/>
	<path class="st11" d="M36.5,30.1c0.9-0.7,1.7-1.2,2.1-1.6l-14.1-8.6L8.4,29.8c0,0,0.8,0.6,2.1,1.5l13.9-8.6L36.5,30.1z"/>
	<path class="st12" d="M25.5,19.3l16.1,9.4c0,0,5.1-3.6,6.7-5c1.6-1.4,1.2-3.7,0.4-4.9c-0.9-1.2-2.7-2.2-4.4-3
		c-1.7-0.8-7.3-3.6-7.3-3.6L25.5,19.3z"/>
	<path class="st13" d="M48.6,18.8c-0.9-1.2-2.7-2.2-4.4-3c-1.7-0.8-7.3-3.6-7.3-3.6l-11.4,7.1l0.4,0.2l8.9-5.5c0,0,5.7,2.8,7.4,3.6
		c1.7,0.8,3.6,1.8,4.5,3.1c0.7,1,1.1,2.7,0.3,4.1c0.5-0.4,1-0.8,1.3-1.1C49.8,22.4,49.5,20,48.6,18.8z"/>
	<g>
		<path class="st14" d="M24.7,18.5L36.9,11C36,10.5,34,9.5,31.2,8c-1.8-0.9-3.5-1.2-5.1-1.2c-1.9,0-3.5,0.5-4.6,1.1
			c-1.7,0.9-6.1,3.3-7.7,4.1L24.7,18.5z M24.5,19.2l-11.8-7l0.2-0.3l0.2,0.3L13,11.9l-0.2,0.3c-0.1-0.1-0.2-0.2-0.2-0.3
			c0-0.1,0.1-0.3,0.2-0.3c0,0,6.2-3.4,8.3-4.4c1.2-0.6,3-1.1,5-1.1c1.7,0,3.6,0.4,5.4,1.3c4,2,6.3,3.3,6.3,3.3
			c0.1,0.1,0.2,0.2,0.2,0.3c0,0.1-0.1,0.3-0.2,0.3l-12.9,7.9c-0.1,0-0.1,0.1-0.2,0.1C24.7,19.3,24.6,19.3,24.5,19.2z"/>
		<path class="st14" d="M41.7,28.1c0.3-0.2,0.8-0.5,1.5-1.1c1.1-0.8,2.6-2,4.5-3.6c1.2-1,1.6-1.9,1.6-2.6c0-1.5-1.7-2.9-2.6-3.3
			c-2.3-1.2-8.3-4.2-9.4-4.7l-10.6,6.6L41.7,28.1z M41.6,28.9l-15.9-9.2l0.2-0.3l0.2,0.3l-0.2-0.3l-0.2,0.3
			c-0.1-0.1-0.2-0.2-0.2-0.3c0-0.1,0.1-0.3,0.2-0.3L37,12c0.1-0.1,0.2-0.1,0.4,0c0,0,7.1,3.4,9.7,4.8c1,0.6,3,2,3,4
			c0,1-0.5,2.1-1.8,3.2c-3.7,3.1-6.2,4.8-6.2,4.8c-0.1,0-0.1,0.1-0.2,0.1C41.7,29,41.6,28.9,41.6,28.9z"/>
		<path class="st14" d="M29.4,34.8c1.3-0.8,3.6-2.5,5.5-3.9c1.3-1,2.5-1.9,3.1-2.4l-13.3-8L9.3,29.9c0.3,0.2,0.8,0.6,1.5,1.1
			c1.3,0.9,3.1,2.2,5.4,3.8c1.8,1.2,4.1,1.7,6.4,1.7C25.3,36.5,27.8,35.8,29.4,34.8z M15.8,35.4c-4.7-3.1-7.4-5.3-7.4-5.3
			c-0.1-0.1-0.1-0.2-0.1-0.3c0-0.1,0.1-0.2,0.2-0.3l16-9.7c0.1-0.1,0.3-0.1,0.4,0l14,8.4c0.1,0.1,0.2,0.2,0.2,0.3
			c0,0.1,0,0.2-0.1,0.3c0,0-6.4,5-9.1,6.7c-1.8,1.1-4.4,1.8-7.1,1.8C20.3,37.2,17.8,36.7,15.8,35.4z"/>
		<path class="st14" d="M3.6,15.4c-1,0.5-2.9,1.8-2.9,3.3c0,0.8,0.4,1.7,1.8,2.9c2.1,1.8,4,3.2,5.4,4.2c1,0.7,1.7,1.2,2,1.4
			l12.8-7.7l-12.2-7.6C9.6,12.4,5.2,14.5,3.6,15.4z M9.8,27.9c0,0-3.3-2.2-7.7-5.7C0.6,21,0,19.8,0,18.7c0-2.1,2.2-3.4,3.3-4
			c1.8-1,7.2-3.6,7.2-3.6c0.1-0.1,0.2,0,0.4,0l12.9,8l-0.2,0.3l0.2-0.3c0.1,0.1,0.2,0.2,0.2,0.3c0,0.1-0.1,0.3-0.2,0.3l-13.5,8.1
			C10.1,28,10,28,10,28C9.9,28,9.8,28,9.8,27.9z"/>
	</g>
</g>
</svg>
