<?xml version="1.0" encoding="utf-8"?>
<!-- Generator: Adobe Illustrator 22.0.1, SVG Export Plug-In . SVG Version: 6.00 Build 0)  -->
<svg version="1.1" id="Layer_1" xmlns="http://www.w3.org/2000/svg" xmlns:xlink="http://www.w3.org/1999/xlink" x="0px" y="0px"
	 viewBox="0 0 283.5 111.1" style="enable-background:new 0 0 283.5 111.1;" xml:space="preserve">
<style type="text/css">
	.st0{fill:#FFFFFF;}
</style>
<path class="st0" d="M0.6,100.4l43.8-60.5c1.4-1.9,0-4.7-2.3-4.7H7.6c0-9,7.1-16.2,15.9-16.2H82L41.9,79.7c-1.3,1.9,0.1,4.6,2.4,4.6
	h213.2L3.1,105C0.7,105.2-0.9,102.4,0.6,100.4"/>
<path class="st0" d="M79.5,73L89.2,19h13c1.8,0,3.1,1.6,2.8,3.3l-9.6,54.1h-13C80.6,76.4,79.2,74.8,79.5,73"/>
<path class="st0" d="M91.3,8.5c0,4.1,3.3,6.2,6.9,6.2c4.4,0,9.4-2.8,9.4-8.4c0-4.2-3.4-6.3-6.9-6.3C96.2,0,91.3,2.8,91.3,8.5"/>
<path class="st0" d="M138.1,74.9l-8.6-15.6c-0.5-0.9-1.5-1.5-2.5-1.5h-4.7L119.4,74c-0.2,1.4-1.4,2.3-2.8,2.3h-14.1l9.8-55
	c0.2-1.4,1.4-2.3,2.8-2.3h26c13.2,0,19.5,7.9,19.5,16.8c0,10-4.9,17-15.7,20.2l12.2,20.3l-16.5,0C139.6,76.4,138.6,75.8,138.1,74.9
	 M126.5,34.3l-2.1,11.4h12.1c8.4-0.6,11.5-13.8,2.3-13.8h-9.6C128,31.9,126.8,32.9,126.5,34.3"/>
<path class="st0" d="M193.4,76.4h-12.2c-1.3,0-2.5-0.9-2.8-2.2L165.1,19h14.2c1.3,0,2.5,0.9,2.8,2.2l8.3,36.1l21.9-36.9
	c0.5-0.9,1.5-1.4,2.5-1.4h14.8l-33.7,56C195.4,75.8,194.4,76.4,193.4,76.4"/>
<path class="st0" d="M258.9,76.4h-32.5L236.7,19h46.8c-1.4,7.9-8.3,13.6-16.4,13.6h-16.5l-1.4,8.2h30.4c-1.4,7.6-8.1,13.2-16,13.2
	h-16.8l-1.6,8.7h30.5C274.1,70.6,267.1,76.4,258.9,76.4"/>
<g>
	<path class="st0" d="M138.1,104.1c0,4.8-4.1,6.9-7.6,6.9c-2.9,0-5.5-1.5-5.5-4.9c0-4.9,3.9-6.9,7.6-6.9
		C135.6,99.2,138.1,100.8,138.1,104.1z M133.9,104.7c0-1.1-0.7-2.1-1.9-2.1c-1.7,0-2.8,1.4-2.8,2.9c0,1.1,0.7,2,1.9,2
		C132.7,107.6,133.9,106.3,133.9,104.7z"/>
	<path class="st0" d="M146.4,96.3l-0.6,3.3h2.5l-0.6,3.2h-2.6l-0.7,3.7c-0.1,0.8,0.3,1.1,0.9,1.1c0.4,0,0.9-0.2,1.3-0.4l0.4,3.1
		c-1.1,0.5-2.2,0.8-3.4,0.8c-2.2,0-4.1-1-3.4-4.6l0.7-3.7h-1.8l0.6-3.2h1.8l0.5-2.8L146.4,96.3z"/>
	<path class="st0" d="M161.9,104.1c0,4.8-4.1,6.9-7.6,6.9c-2.9,0-5.5-1.5-5.5-4.9c0-4.9,3.9-6.9,7.6-6.9
		C159.3,99.2,161.9,100.8,161.9,104.1z M157.7,104.7c0-1.1-0.7-2.1-1.9-2.1c-1.7,0-2.8,1.4-2.8,2.9c0,1.1,0.7,2,1.9,2
		C156.5,107.6,157.7,106.3,157.7,104.7z"/>
	<path class="st0" d="M175,94.8l-1.4,8l2.9-3.3h4.7l0,0.2l-4.9,5.1l3.6,5.7l0,0.3h-4.8l-2.2-3.9l-0.7,3.9h-4.2l2.8-16H175z"/>
	<path class="st0" d="M180.9,110.8l2-11.1h4.2l-2,11.1H180.9z M183.2,96.9c0,1.2,1,1.8,2,1.8c1.3,0,2.8-0.8,2.8-2.4
		c0-1.2-1-1.8-2-1.8C184.6,94.4,183.2,95.3,183.2,96.9z"/>
	<path class="st0" d="M193.4,99.5l0,1.2c0.8-1.1,1.9-1.5,3-1.5c1.1,0,2.2,0.4,2.8,1.2l-2.2,3c-0.6-0.5-1.1-0.7-1.8-0.7
		c-1.1,0-2.1,0.6-2.3,2.1l-1,5.9h-4.2l2-11.3H193.4z"/>
	<path class="st0" d="M208.7,99.5h4l-2,11.3h-3.9l0-1.2c-1.1,1.1-2.7,1.5-4,1.4c-2.8-0.2-4.3-2.1-4.3-4.7c0-3.9,2.9-7,6.7-7
		c1.6,0,2.6,0.5,3.1,1.5L208.7,99.5z M202.8,105.6c0,1.3,0.8,2,1.9,2c1.6,0,2.8-1.4,2.8-3c0-1.2-0.7-2-1.9-2
		C204.2,102.6,202.8,103.8,202.8,105.6z"/>
	<path class="st0" d="M220.2,94.7l-2.8,16h-4.2l2.8-16H220.2z"/>
	<path class="st0" d="M230.2,99.5h4l-2,11.3h-3.9l0-1.2c-1.1,1.1-2.7,1.5-4,1.4c-2.8-0.2-4.3-2.1-4.3-4.7c0-3.9,2.9-7,6.7-7
		c1.6,0,2.6,0.5,3.1,1.5L230.2,99.5z M224.4,105.6c0,1.3,0.8,2,1.9,2c1.6,0,2.8-1.4,2.8-3c0-1.2-0.7-2-1.9-2
		C225.7,102.6,224.4,103.8,224.4,105.6z"/>
	<path class="st0" d="M241.5,110.8l1.1-6.3c0.2-1.3-0.1-1.7-0.9-1.7c-0.7,0-1.6,0.6-1.8,1.8l-1.1,6.2h-4.2l2-11.3h3.5l0.1,1.2
		c0.9-1,2.2-1.5,3.4-1.4c1.1,0,2.2,0.5,2.5,1.6c1.1-1.2,2.5-1.6,4-1.6c2.4,0,4.1,1.5,3.4,5.3l-1.1,6.3h-4.2l1.1-6.3
		c0.2-1.2-0.3-1.7-0.9-1.7c-0.7,0-1.6,0.5-1.8,1.7l-1.1,6.2H241.5z"/>
	<path class="st0" d="M265.3,99.5h4l-2,11.3h-3.9l0-1.2c-1.1,1.1-2.7,1.5-4,1.4c-2.8-0.2-4.3-2.1-4.3-4.7c0-3.9,2.9-7,6.7-7
		c1.6,0,2.6,0.5,3.1,1.5L265.3,99.5z M259.4,105.6c0,1.3,0.8,2,1.9,2c1.6,0,2.8-1.4,2.8-3c0-1.2-0.7-2-1.9-2
		C260.8,102.6,259.4,103.8,259.4,105.6z"/>
</g>
</svg>
