<?xml version="1.0" encoding="utf-8"?>
<!-- Generator: Adobe Illustrator 22.0.1, SVG Export Plug-In . SVG Version: 6.00 Build 0)  -->
<svg version="1.1" id="Layer_1" xmlns="http://www.w3.org/2000/svg" xmlns:xlink="http://www.w3.org/1999/xlink" x="0px" y="0px"
	 viewBox="0 0 283.5 105" style="enable-background:new 0 0 283.5 105;" xml:space="preserve">
<style type="text/css">
	.st0{fill:#DA2128;}
</style>
<g>
	<path class="st0" d="M0.6,100.4l43.8-60.5c1.4-1.9,0-4.7-2.3-4.7H7.6c0-9,7.1-16.2,15.9-16.2H82L41.9,79.7
		c-1.3,1.9,0.1,4.6,2.4,4.6h213.2L3.1,105C0.7,105.2-0.9,102.4,0.6,100.4z"/>
	<g>
		<path class="st0" d="M79.5,73L89.2,19h13c1.8,0,3.1,1.6,2.8,3.3l-9.6,54.1h-13C80.6,76.4,79.2,74.8,79.5,73z"/>
		<path class="st0" d="M91.3,8.5c0,4.1,3.3,6.2,6.9,6.2c4.4,0,9.4-2.8,9.4-8.4c0-4.2-3.4-6.3-6.9-6.3C96.2,0,91.3,2.8,91.3,8.5"/>
	</g>
	<path class="st0" d="M138.1,74.9l-8.6-15.6c-0.5-0.9-1.5-1.5-2.5-1.5h-4.7L119.4,74c-0.2,1.4-1.4,2.3-2.8,2.3h-14.1l9.8-55
		c0.2-1.4,1.4-2.3,2.8-2.3h26c13.2,0,19.5,7.9,19.5,16.8c0,10-4.9,17-15.7,20.2l12.2,20.3l-16.5,0C139.6,76.4,138.6,75.8,138.1,74.9
		z M126.5,34.3l-2.1,11.4h12.1c8.4-0.6,11.5-13.8,2.3-13.8h-9.6C128,31.9,126.8,32.9,126.5,34.3z"/>
	<path class="st0" d="M193.4,76.4h-12.2c-1.3,0-2.5-0.9-2.8-2.2L165.1,19h14.2c1.3,0,2.5,0.9,2.8,2.2l8.3,36.1l21.9-36.9
		c0.5-0.9,1.5-1.4,2.5-1.4h14.8l-33.7,56C195.4,75.8,194.4,76.4,193.4,76.4z"/>
	<path class="st0" d="M258.9,76.4h-32.5L236.7,19h46.8v0c-1.4,7.9-8.3,13.6-16.4,13.6h-16.5l-1.4,8.2h30.4v0
		c-1.4,7.6-8.1,13.2-16,13.2h-16.8l-1.6,8.7h30.5v0C274.1,70.6,267.1,76.4,258.9,76.4z"/>
</g>
</svg>
